PathFileType	4	(X/Y/Z)	16_2_12_p0_0-370.trc
DataRate	CameraRate	NumFrames	NumMarkers	Units	OrigDataRate	OrigDataStartFrame	OrigNumFrames
59.0	59.0	4	27	m	59.0	0	371
Frame#	Time	RHip			RKnee			RAnkle			RBigToe			RSmallToe			RHeel			LHip			LKnee			LAnkle			LBigToe			LSmallToe			LHeel			Neck			Head			Nose			RShoulder			RElbow			RWrist			RThumb			RIndex			RPinky			LShoulder			LElbow			LWrist			LThumb			LIndex			LPinky			
		X1	Y1	Z1	X2	Y2	Z2	X3	Y3	Z3	X4	Y4	Z4	X5	Y5	Z5	X6	Y6	Z6	X7	Y7	Z7	X8	Y8	Z8	X9	Y9	Z9	X10	Y10	Z10	X11	Y11	Z11	X12	Y12	Z12	X13	Y13	Z13	X14	Y14	Z14	X15	Y15	Z15	X16	Y16	Z16	X17	Y17	Z17	X18	Y18	Z18	X19	Y19	Z19	X20	Y20	Z20	X21	Y21	Z21	X22	Y22	Z22	X23	Y23	Z23	X24	Y24	Z24	X25	Y25	Z25	X26	Y26	Z26	X27	Y27	Z27	
0	0.0	0.27249547116362716	0.5517868870491489	0.5279059198710432	0.2913127696385739	0.6118257824152254	0.9424080610334491	0.2878343850307265	0.6692848670218914	1.3443477787825342	0.23178370505864493	0.505563826022513	1.3951655548947406	0.3098179973806326	0.4959020651827478	1.3863981734351483	0.2541537479270697	0.794693463514066	1.4254872779977787	0.04858518942779505	0.5602937199164534	0.5325473550967441	0.04718465706894562	0.6296463134193813	0.9392267443805552	0.06605154726955896	0.6822706970770867	1.3248874978466523	0.06221792710781479	0.4805231544096343	1.3712823908161234	0.010939053312570416	0.5525254750084138	1.3844500369653692	0.09522153994486307	0.7481803350291775	1.389110473240005	0.16348628963866835	0.44073768307390987	-0.07291622489769192	0.1615567825283395	0.37867291007896103	-0.3192898494115796	0.14054026439460196	0.3153711756889266	-0.17994007115516383	0.3417878445385449	0.4747417755878339	0.018505123538357947	0.3683328457865285	0.3881634837610326	0.2978271967132352	0.2040593471886623	0.2528183239166372	0.44611088279187977	0.16431061588688992	0.250537539213315	0.5304780569435369	0.17482235332626078	0.25619456157178955	0.5432439279022298	0.1614893649889651	0.25232108902897854	0.5458908176574315	0.002073482086061237	0.49912753232147455	0.006336009006859065	-0.05214833462243094	0.42196279916610513	0.28566321267258904	0.09623793705334667	0.261999842298149	0.4359538708689669	0.1992211688350827	0.25787306770017915	0.49072109760563354	0.19947919075483028	0.23337061632229214	0.5127907764337998	0.1344660775369518	0.19590909370798665	0.5273671202136065
1	0.01694915254237288	0.27215206946547565	0.5520742055807761	0.531503012423381	0.29045356806241124	0.6101107991439491	0.9376722703459457	0.2878943751431464	0.6693110917125953	1.3442602373499066	0.2356600817348677	0.506492821869861	1.3911919644203645	0.3087721693677981	0.4952895215943309	1.382268303769068	0.2529612721114035	0.7923997722668289	1.4199316186776831	0.048162818234760346	0.5581587365126752	0.5277227501955695	0.05186901617883999	0.6144668239713234	0.9341876267536767	0.0661704887906265	0.6824619435807722	1.3248992492032374	0.06945841023049922	0.4801973272033692	1.370676694816776	0.011149439723835631	0.5524917325160084	1.384271195933724	0.09432454425184832	0.7509054340936938	1.3954246126632792	0.16352457229494607	0.44081484894942957	-0.07309950883785808	0.16165455183102595	0.3786492487400458	-0.31941018609821475	0.14043077424051834	0.31533114982225563	-0.17993268208645727	0.34174490846746375	0.4748042767596895	0.018540967791680296	0.372836921722205	0.3896936164131928	0.2983319524072473	0.20388185062278308	0.2528548498210782	0.44633955921553164	0.16161865425296856	0.27208757222022495	0.537101174618703	0.16680547037346713	0.26579571304172056	0.5458987179653924	0.16148742783184497	0.24950927197778247	0.5453518153624726	0.006046431560297565	0.4849164417889112	0.0025814086004284486	-0.051903657943070024	0.42233755953061974	0.2822515353249897	0.09632765038321801	0.261915835297601	0.4359017143293936	0.19964516666479676	0.2578536153366756	0.4857771261740467	0.1970557269782627	0.2219691411043787	0.5116676955357655	0.13445447065784882	0.19648450484200933	0.5275421091736734
2	0.03389830508474576	0.27217231345976	0.5520656435815553	0.5314817890911825	0.2903615839268051	0.6103889960803804	0.9379313646527178	0.29236241913648936	0.6832276723061773	1.3500561744169128	0.23080768968614054	0.5038801167674336	1.3903242158119504	0.3124362245416395	0.5070208425072372	1.38813015677449	0.25302242800621844	0.7923076942801719	1.4201928506400114	0.047886047206927865	0.5585198012920074	0.5241736295624383	0.050941879993187056	0.6125018684323434	0.9289927027498889	0.06731077321713334	0.6806333778397219	1.3238613832664772	0.06941096110907065	0.48025677932514593	1.3706286071372473	0.010956737112750418	0.5526036791027308	1.384379307165027	0.09520684583301059	0.7503133708653918	1.390682620652685	0.16350417378985255	0.44080986725202415	-0.07307954778831752	0.16170545875308026	0.37872383593498377	-0.3193734771719572	0.14044767270727793	0.31535197802820375	-0.1799480232292827	0.34175707423768975	0.4748768718969168	0.018525280422447728	0.3728904388672183	0.38970565358604337	0.29823641509383453	0.20389028476520416	0.2530407662260413	0.44652072871133025	0.15760753614462064	0.2852195751955629	0.5354899949061418	0.1625789464454958	0.2797732152860931	0.553144968337899	0.15752469818644177	0.2629814305904111	0.551934360840317	0.0060219598092121854	0.4848105501308926	0.0025797265668458633	-0.04910039204560572	0.43447024735089246	0.2835285600632594	0.09674741041761767	0.26186597159941843	0.4323998732953554	0.20008226278359506	0.2583771336399196	0.4824134434367937	0.1969737061108125	0.22224422137357025	0.5116297608084391	0.13081477476510378	0.20763472977622696	0.5302590542593396
3	0.05084745762711865	0.27218759416559973	0.5519721878505035	0.5313610834599658	0.2904737913685396	0.6101727810120725	0.9376607576465047	0.2923757693255934	0.6833911976365781	1.3500748038552803	0.2336153902835133	0.5167420850369933	1.4006455419424695	0.3127180477888863	0.5074726739470738	1.3880455313411892	0.25756811078358177	0.7947587203836218	1.420956890516257	0.047962259092189236	0.5584334372462867	0.5241187180470263	0.0516627476164267	0.6143770300859878	0.9339796902245244	0.06628488617062119	0.681185212045704	1.3287997887867686	0.06456941519651692	0.4791297744307849	1.3703097198642404	0.011020113043995616	0.5523162608380199	1.3842410609629847	0.09575884887492292	0.7489095370303493	1.39426236394939	0.16351172193209806	0.44079502603418075	-0.07309054893978333	0.16165687948799928	0.37874893125987985	-0.31934947220769705	0.13647616851295727	0.3138830175558191	-0.17975433175449376	0.3419841801640558	0.4749131569317814	0.022088316601031322	0.3728461652993174	0.38967188542379416	0.2981609244913842	0.2082272991431471	0.25413802170328564	0.44662211252529865	0.16244675942973805	0.2725674092369041	0.5351102025418423	0.16264662809065278	0.27977601442377265	0.5454210430605354	0.15719765946465244	0.26246933504649195	0.5483131549168193	0.006030494233449751	0.484801737235327	0.0026020511962163728	-0.049168970890275734	0.43460518850915464	0.28353531029551854	0.09670477737566102	0.26200005291819556	0.43244475066837806	0.20017413193707412	0.25820686741033516	0.4862133798697172	0.1977035833063227	0.22209807101857837	0.5088767203554491	0.13503517734570836	0.2074660836911896	0.5301014812841913
